<svg width="690" height="567" viewBox="0 0 690 567" fill="none" xmlns="http://www.w3.org/2000/svg">
<path fill-rule="evenodd" clip-rule="evenodd" d="M721.656 734.671C721.656 734.671 711.762 703.018 684.614 661.863C672.28 643.152 656.38 622.568 636.172 601.91C623.323 588.777 608.756 575.615 592.244 562.893C571.52 546.92 547.799 531.473 520.425 518.223C430.258 473.921 323.579 412.284 231.048 330.676C168.383 275.408 112.239 211.004 71.9517 136.951C66.6982 127.288 62.8627 118.591 59.4571 108.87C56.3845 100.144 53.6561 90.5984 50.519 78.7394C50.0571 77.085 50.6694 75.2254 51.8941 74.5958C53.1081 73.9809 54.4723 74.8159 54.9235 76.4849C58.2216 87.9778 61.0577 97.2305 64.2162 105.663C67.6541 114.829 71.4685 123.013 76.6682 132.076C117.707 203.756 174.302 265.232 237.01 317.807C329.949 395.71 436.403 453.863 526.334 495.135C554.975 508.487 579.986 523.802 601.547 540.521C618.876 553.947 634.024 568.162 647.206 582.525C667.951 605.174 683.904 628.043 695.98 648.804C722.784 694.893 730.712 730.206 730.712 730.206C731.615 733.603 730.326 737.365 727.822 738.609C725.33 739.839 722.559 738.068 721.656 734.671Z" fill="white" fill-opacity="0.12"/>
<path fill-rule="evenodd" clip-rule="evenodd" d="M94.9308 175.338C94.9308 175.338 92.7502 173.903 89.2157 171.18C87.5934 169.921 85.7023 168.457 83.6611 166.656C79.0201 162.571 73.5629 157.154 67.2244 152.776C60.9396 148.443 54.0854 144.68 46.9734 143.143C46.1569 143.055 45.5556 142.074 45.62 140.961C45.6845 139.849 46.4041 139.029 47.2206 139.117C56.8787 139.263 66.5692 143.011 75.0241 147.74C78.3867 149.629 81.534 151.634 84.3595 153.742C86.5188 155.353 88.5392 156.919 90.2366 158.588C91.9985 160.331 93.4271 162.088 94.6089 163.64C97.2839 167.124 98.5943 169.467 98.5943 169.467C99.7868 170.843 99.9268 173.273 98.9169 174.898C97.907 176.523 96.1233 176.714 94.9308 175.338Z" fill="white" fill-opacity="0.12"/>
<path fill-rule="evenodd" clip-rule="evenodd" d="M164.762 264.423C164.762 264.423 162.743 265.126 159.187 265.565C157.608 265.756 155.749 265.902 153.654 265.756C151.634 265.595 149.432 265.082 147.101 264.467C144.05 263.676 140.816 262.52 137.475 261.07C129.117 257.454 120.329 251.95 113.217 243.546C112.562 242.873 112.422 241.614 112.916 240.721C113.399 239.828 114.334 239.636 114.989 240.295C120.866 245.361 127.549 248.392 134.08 250.471C140.698 252.564 147.144 253.048 152.397 253.839C154.707 254.19 156.748 254.673 158.499 255.082C162.334 255.976 164.591 256.722 164.591 256.722C166.148 256.649 167.448 258.318 167.502 260.441C167.556 262.564 166.32 264.35 164.762 264.423Z" fill="white" fill-opacity="0.12"/>
<path fill-rule="evenodd" clip-rule="evenodd" d="M122.787 210.212C122.787 210.212 122.024 207.986 121.143 203.96C120.746 202.159 120.316 200.052 120.048 197.607C119.79 195.249 119.726 192.629 119.672 189.832C119.608 186.143 119.704 182.19 119.908 178.12C120.445 166.905 121.863 155.09 124.979 146.144C125.269 145.105 126.118 144.578 126.891 144.958C127.654 145.354 128.041 146.525 127.762 147.564C126.666 152.981 126.365 159.233 126.397 165.704C126.429 172.893 127.052 180.169 127.654 186.743C127.944 189.979 128.331 192.995 128.502 195.733C128.61 197.636 128.61 199.363 128.6 200.93C128.567 205.864 128.352 208.807 128.352 208.807C128.632 210.9 127.622 212.905 126.086 213.301C124.549 213.681 123.067 212.291 122.787 210.212Z" fill="white" fill-opacity="0.12"/>
<path fill-rule="evenodd" clip-rule="evenodd" d="M289.149 376.985C289.149 376.985 283.112 377.746 273.335 378.917C268.78 379.459 263.441 380.117 257.51 380.718C243.813 382.123 227.054 383.646 210.198 387.497C192.299 391.596 174.284 397.731 159.684 407.423C158.964 407.935 158.072 407.555 157.685 406.574C157.309 405.593 157.589 404.363 158.309 403.85C176.303 389.986 199.938 381.084 222.198 375.477C230.502 373.398 238.602 371.729 246.155 370.543C251.902 369.65 257.306 368.903 262.238 368.581C267.308 368.244 271.853 368.273 275.699 368.361C284.132 368.566 289.192 369.284 289.192 369.284C290.761 369.299 292.018 371.04 291.996 373.163C291.985 375.286 290.707 377 289.149 376.985Z" fill="white" fill-opacity="0.12"/>
<path fill-rule="evenodd" clip-rule="evenodd" d="M207.725 431.945C206.125 422.546 207.876 411.477 210.615 401.449C211.775 397.217 213.108 393.25 214.494 389.707C215.16 388.008 215.793 386.383 216.524 384.978C217.286 383.528 218.081 382.299 218.844 381.244C221.251 377.877 222.948 376.267 222.948 376.267C223.926 374.627 225.688 374.378 226.891 375.71C228.094 377.043 228.277 379.444 227.3 381.084C227.3 381.084 226.741 383.177 225.516 386.603C224.957 388.141 224.345 389.956 223.485 391.874C222.218 394.685 220.499 397.642 218.93 400.995C216.835 405.504 214.719 410.336 213.183 415.431C211.561 420.804 210.433 426.207 210.572 431.433C210.669 432.502 210.121 433.482 209.337 433.629C208.553 433.775 207.833 433.014 207.725 431.945Z" fill="white" fill-opacity="0.12"/>
<path fill-rule="evenodd" clip-rule="evenodd" d="M281.211 513.42C297.895 491.796 321.96 476.877 345.272 466.833C355.554 462.412 365.663 458.913 374.924 456.277C379.457 454.989 383.786 453.847 387.837 453.057C392.048 452.222 395.959 451.695 399.439 451.329C410.247 450.187 416.993 450.465 416.993 450.465C418.54 450.348 419.862 451.959 419.948 454.052C420.045 456.161 418.863 457.961 417.316 458.093C417.316 458.093 409.387 459.659 397.043 462.719C394.916 463.246 392.661 463.788 390.286 464.345C388.127 464.828 385.871 465.311 383.529 465.824C368.832 469.015 351.009 473.671 333.498 481.313C314.987 489.395 296.821 500.507 283.134 516.319C282.543 517.051 281.64 516.978 281.103 516.172C280.577 515.367 280.631 514.138 281.211 513.42Z" fill="white" fill-opacity="0.12"/>
<path fill-rule="evenodd" clip-rule="evenodd" d="M352.012 525.866C350.465 515.969 353.753 501.767 358.222 488.649C359.908 483.657 361.756 478.869 363.615 474.579C364.496 472.53 365.345 470.554 366.269 468.841C367.225 467.069 368.202 465.546 369.105 464.214C371.962 460.056 373.971 457.89 373.971 457.89C374.938 456.235 376.7 455.957 377.914 457.26C379.117 458.577 379.321 460.979 378.365 462.633C378.365 462.633 377.517 465.269 375.841 469.485C375.078 471.418 374.197 473.672 373.047 476.058C371.35 479.616 369.137 483.393 367.053 487.58C364.195 493.305 361.284 499.44 359.049 505.56C356.449 512.69 354.612 519.556 354.848 525.354C354.956 526.422 354.408 527.404 353.624 527.55C352.84 527.696 352.12 526.934 352.012 525.866Z" fill="white" fill-opacity="0.12"/>
<path fill-rule="evenodd" clip-rule="evenodd" d="M463.947 615.245C478.998 585.041 499.507 567.428 519.607 557.268C529.62 552.202 539.536 548.996 548.625 547.092C553.115 546.155 557.402 545.467 561.409 545.189C565.567 544.896 569.402 544.984 572.818 545.218C583.357 545.95 589.9 548.044 589.9 548.044C591.436 548.337 592.5 550.269 592.274 552.363C592.059 554.442 590.641 555.891 589.115 555.598C589.115 555.598 582.798 555.218 572.807 555.892C569.552 556.096 565.9 556.462 561.936 556.858C556.961 557.355 551.483 557.897 545.703 559.024C538.15 560.503 530.061 562.714 521.842 566.213C502.236 574.544 481.909 589.785 466.267 617.529C465.805 618.408 464.903 618.597 464.269 617.968C463.625 617.338 463.474 616.109 463.947 615.245Z" fill="white" fill-opacity="0.12"/>
<path fill-rule="evenodd" clip-rule="evenodd" d="M212.817 164.841C207.692 180.843 207.037 201.897 208.219 223.038C209.261 241.808 211.946 260.563 214.417 275.95C214.804 278.38 215.18 280.707 215.502 282.962C215.868 285.422 216.179 287.779 216.469 290.005C218.113 302.918 219.241 311.204 219.241 311.204C219.692 313.21 218.865 315.348 217.382 315.963C215.91 316.578 214.342 315.451 213.891 313.43C213.891 313.43 211.377 305.436 208.551 292.552C208.068 290.327 207.596 287.955 207.155 285.452C206.758 283.153 206.392 280.752 206.059 278.263C203.878 262.319 202.138 242.774 202.009 223.404C201.869 201.209 203.964 179.292 210.227 163.143C210.571 162.177 211.431 161.767 212.15 162.235C212.859 162.704 213.16 163.875 212.817 164.841Z" fill="white" fill-opacity="0.12"/>
<path fill-rule="evenodd" clip-rule="evenodd" d="M342.116 274.101C338.506 294.627 341.139 317.145 346.209 338.461C350.958 358.387 358.016 377.113 364.29 392.208C365.278 394.594 366.235 396.878 367.137 399.104C368.125 401.519 369.049 403.847 369.919 406.057C374.926 418.766 378.417 426.803 378.417 426.803C379.341 428.487 379.072 430.888 377.837 432.133C376.591 433.392 374.84 433.04 373.916 431.342C373.916 431.342 369.146 424.139 362.969 411.797C361.905 409.674 360.82 407.375 359.735 404.915C358.746 402.675 357.78 400.29 356.813 397.801C350.625 381.916 344.254 361.842 340.258 340.833C335.928 318.067 334.499 294.203 339.344 273.062C339.559 272.022 340.343 271.407 341.106 271.7C341.869 271.978 342.32 273.062 342.116 274.101Z" fill="white" fill-opacity="0.12"/>
<path fill-rule="evenodd" clip-rule="evenodd" d="M463.416 338.026C461.601 359.797 463.921 381.815 467.928 402.181C471.978 422.765 477.941 441.521 483.269 456.527C484.129 458.958 484.967 461.285 485.751 463.525C486.611 465.999 487.406 468.356 488.158 470.582C492.519 483.597 495.581 491.606 495.581 491.606C496.44 493.363 496.086 495.72 494.797 496.891C493.518 498.062 491.778 497.579 490.919 495.822C490.919 495.822 487.298 489.849 482.475 479.191C480.928 475.765 479.273 471.871 477.64 467.508C476.082 463.321 474.6 458.68 473.106 453.746C470.088 443.775 467.165 432.502 464.748 420.438C459.613 394.773 456.798 365.55 460.58 337.455C460.687 336.386 461.418 335.653 462.202 335.8C462.986 335.961 463.535 336.957 463.416 338.026Z" fill="white" fill-opacity="0.12"/>
<path fill-rule="evenodd" clip-rule="evenodd" d="M513.222 387.482C502.704 397.262 496.205 408.682 492.037 419.589C490.167 424.494 488.846 429.296 487.815 433.762C486.998 437.276 486.483 440.598 485.935 443.585C485.505 446.001 485.043 448.182 484.688 450.144C483.603 456.249 483.141 460.027 483.141 460.027C483.238 462.121 482.056 463.936 480.52 464.068C478.973 464.2 477.641 462.589 477.555 460.495C477.555 460.495 476.771 456.059 476.943 448.71C476.986 446.397 477.168 443.82 477.566 441.038C477.953 438.388 478.597 435.606 479.37 432.707C480.896 427.027 483.055 420.907 486.074 414.758C491.5 403.777 499.568 392.695 511.751 384.115C512.438 383.574 513.319 383.866 513.716 384.803C514.125 385.726 513.899 386.926 513.222 387.482Z" fill="white" fill-opacity="0.12"/>
<path fill-rule="evenodd" clip-rule="evenodd" d="M45.6125 0.103787C55.2169 -0.789295 62.6408 4.14384 68.0876 12.489C71.5684 17.8036 74.125 24.6557 75.8762 32.3421C77.5736 39.8088 78.4334 48.1251 78.5194 56.6899C78.702 75.7228 75.038 95.9852 68.8929 111.49L67.5178 115.062L64.6386 114.067C49.5767 108.43 38.3398 85.224 33.3657 60.8326C29.7023 42.8392 29.358 24.4508 32.8281 12.9725C35.2775 4.86153 39.4996 -0.0719014 45.6125 0.103787ZM63.575 102.91C51.9079 96.8197 43.3995 77.919 38.8659 58.5932C35.0628 42.4007 34.0424 25.7244 36.8679 15.11C38.4471 9.20975 41.2293 5.28616 45.6125 5.15439C52.0799 5.78394 56.9358 9.41457 60.6637 14.7731C64.3271 20.0437 66.6695 27.1889 68.1735 35.2999C69.409 41.976 69.9999 49.2818 70.0751 56.8364C70.204 72.5752 68.012 89.3091 63.575 102.91Z" fill="white" fill-opacity="0.12"/>
<path fill-rule="evenodd" clip-rule="evenodd" d="M1.66917 120.127C3.68888 109.659 9.56502 104.242 17.1282 102.719C21.1999 101.899 25.7982 102.456 30.5467 104.081C35.0481 105.618 39.6889 108.224 44.1258 111.694C53.9881 119.409 62.8191 131.371 67.6751 144.811L69.4907 149.672L65.8273 151.838C54.837 157.944 32.62 161.224 17.2895 155.397C9.3718 152.395 3.26977 147.008 1.00296 138.853C-0.415138 133.787 -0.447243 127.594 1.66917 120.127ZM58.8118 144.591C48.1653 149.511 31.0624 152.19 18.6003 148.354C8.39427 145.192 1.41146 137.447 5.16083 121.825C7.15906 115.896 10.7686 113.129 15.0981 112.236C19.0516 111.416 23.5853 112.456 28.3553 114.564C32.1691 116.233 36.0795 118.663 39.9149 121.679C47.2095 127.403 54.1708 135.265 58.8118 144.591Z" fill="white" fill-opacity="0.12"/>
<path fill-rule="evenodd" clip-rule="evenodd" d="M49.7137 210.137L51.8513 209.464C59.6509 206.551 68.654 204.457 77.8287 204.647C83.7589 204.779 89.7323 205.906 95.4476 208.117C109.478 213.578 121.94 225.657 128.923 247.105L130.341 251.322L127.215 253.167C116.225 259.389 98.1336 264.542 81.761 257.485C68.9981 251.98 57.1694 239.214 50.6697 213.68L49.7137 210.137ZM55.2682 215.627C63.5835 213.871 73.0263 213.652 82.3406 215.291C88.6683 216.404 94.9643 218.336 100.787 221.865C108.952 226.813 116.214 234.646 121.252 246.71C111.283 251.952 96.7582 255.773 83.254 250.634C72.1778 246.403 61.8538 236.08 55.2682 215.627Z" fill="white" fill-opacity="0.12"/>
<path fill-rule="evenodd" clip-rule="evenodd" d="M99.4609 407.804L100.89 406.134C107.131 398.155 114.619 391.435 122.881 386.735C128.285 383.646 134.022 381.465 139.834 380.235C154.67 377.088 170.033 380.147 182.882 390.235L186.147 392.723L183.999 396.881C178.241 407.642 162.792 427.934 144.389 433.205C130.67 437.129 115.275 433.03 101.137 410.395L99.4609 407.804ZM105.746 409.692C111.59 403.865 118.358 399.356 125.481 395.959C130.509 393.558 135.719 391.772 141.005 390.674C152.951 388.2 165.273 389.342 176.102 395.915C169.882 406.325 157.678 421.361 143.218 426.178C131.529 430.072 118.412 427.129 105.746 409.692Z" fill="white" fill-opacity="0.12"/>
<path fill-rule="evenodd" clip-rule="evenodd" d="M176.483 486.686V483.978C176.333 479.995 176.709 465.003 180.297 449.016C181.952 441.608 184.412 434.067 187.549 427.289C193.114 415.254 201.031 405.767 211.678 403.337L213.934 402.766L215.159 405.431C221.863 420.672 222.249 443.35 214.31 460.918C208.025 474.827 196.616 485.676 179.094 486.496L176.483 486.686ZM210.646 413.19C215.481 425.693 215.567 443.16 209.734 457.244C204.824 469.147 195.724 478.604 181.758 481.064C182.403 475.368 184.261 464.183 187.441 452.28C189.192 445.736 191.266 438.914 194.027 432.779C198.023 423.878 203.298 416.235 210.646 413.19Z" fill="white" fill-opacity="0.12"/>
<path fill-rule="evenodd" clip-rule="evenodd" d="M227.866 554.397L229.434 551.835C235.214 541.543 241.81 529.391 249.459 518.821C254.616 511.691 260.278 505.351 266.09 500.358C277.51 490.549 289.778 486.245 302.015 492.438L305.517 494.136L303.916 498.718C299.017 512.085 287.329 545.584 268.195 558.672C257.828 565.758 245.301 567.149 230.508 556.271L227.866 554.397ZM235.063 553.577C240.908 544.837 247.665 535.204 254.734 526.214C259.719 519.875 264.833 513.814 270.183 509.099C278.477 501.779 287.211 497.386 296.192 499.743C291.207 514.501 281.56 541.089 265.907 552.684C257.452 558.951 247.235 560.663 235.063 553.577Z" fill="white" fill-opacity="0.12"/>
<path fill-rule="evenodd" clip-rule="evenodd" d="M268.661 395.429L270.745 395.853C277.868 396.922 287.955 400.89 298.527 407.376C304.178 410.846 309.947 415.062 315.479 419.82C330.874 433.1 344.304 450.581 348.956 467.813L350.46 473.2L346.259 473.991C324.075 477.798 306.573 471.956 293.853 461.166C275.998 445.998 267.479 421.094 268.521 399.118L268.661 395.429ZM272.239 403.292C279.78 405.854 289.858 412.046 300.235 419.85C306.542 424.579 312.998 429.849 318.929 435.691C328.2 444.812 336.322 455.032 340.748 465.705C322.42 468.443 307.658 463.786 296.593 454.987C281.08 442.66 272.819 422.31 272.239 403.292Z" fill="white" fill-opacity="0.12"/>
<path fill-rule="evenodd" clip-rule="evenodd" d="M429.182 522.042L431.631 523.11C437.958 525.453 447.574 523.169 458.081 522.027C462.689 521.515 467.459 521.207 472.175 521.441C477.106 521.69 481.973 522.598 486.582 524.311C498.603 528.791 508.928 538.981 513.859 561.162L515.041 566.286L511.141 567.032C486.517 571.205 466.728 571.015 452.87 565.803C436.497 559.654 428.032 546.77 429.031 526.243L429.182 522.042ZM432.78 530.694C439.355 532.759 448.562 532.247 458.446 531.969C462.84 531.837 467.363 531.763 471.843 532.056C476.215 532.334 480.544 532.905 484.648 534.311C493.597 537.4 501.429 544.296 506.092 558.863C484.391 563.094 466.772 563.475 454.106 559.288C441.128 554.998 433.597 545.789 432.78 530.694Z" fill="white" fill-opacity="0.12"/>
<path fill-rule="evenodd" clip-rule="evenodd" d="M321.093 579.86V577.152C320.942 573.169 321.329 558.177 324.907 542.19C326.572 534.781 329.032 527.241 332.169 520.463C337.734 508.428 345.651 498.926 356.287 496.51L358.554 495.94L359.779 498.604C366.472 513.845 366.87 536.509 358.93 554.092C352.646 568.001 341.236 578.835 323.714 579.67L321.093 579.86ZM355.256 506.364C360.09 518.867 360.176 536.333 354.354 550.417C349.433 562.32 340.334 571.764 326.368 574.223C327.012 568.543 328.871 557.342 332.051 545.454C333.802 538.895 335.875 532.087 338.636 525.953C342.643 517.051 347.918 509.409 355.256 506.364Z" fill="white" fill-opacity="0.12"/>
<path fill-rule="evenodd" clip-rule="evenodd" d="M141.544 84.7415C148.871 87.2451 152.75 94.9315 153.857 105.063C154.437 110.333 154.071 116.337 152.965 122.618C151.934 128.444 150.172 134.52 147.787 140.435C142.78 152.88 135.023 164.607 125.902 172.732L122.884 175.5L120.756 171.488C112.71 155.515 111.711 135.838 114.816 119.118C116.997 107.45 121.1 97.2893 125.956 90.9645C130.791 84.669 136.334 82.033 141.544 84.7415ZM124.699 161.166C119.242 148.692 118.49 133.817 120.402 120.846C122.239 108.386 126.45 97.5673 131.639 92.2674C134.379 89.471 137.355 88.2116 140.331 89.4999C144.413 92.0474 146.282 96.7324 146.884 102.428C147.421 107.537 146.701 113.408 145.251 119.703C144.102 124.652 142.447 129.791 140.384 134.901C136.528 144.461 131.21 153.919 124.699 161.166Z" fill="white" fill-opacity="0.12"/>
<path fill-rule="evenodd" clip-rule="evenodd" d="M218.712 69.6008L219.743 70.5972C229.584 79.323 235.386 92.3089 237.663 106.759C239.157 116.232 239.038 126.349 237.728 136.143C234.225 162.292 221.882 186.185 206.659 193.183L203.694 194.603L202.565 190.606C197.151 170.578 194.508 148.353 196.152 127.622C197.892 105.822 204.305 85.6765 217.09 71.4604L218.712 69.6008ZM217.863 77.317C225.147 85.5744 228.886 96.7454 230.347 108.648C231.378 116.993 231.271 125.734 230.165 134.284C227.457 155.249 218.992 175.161 207.4 183.155C202.662 165.6 200.223 146.406 201.265 128.266C202.372 108.941 207.4 90.8304 217.863 77.317Z" fill="white" fill-opacity="0.12"/>
<path fill-rule="evenodd" clip-rule="evenodd" d="M245.539 183.139L246.054 185.146C249.374 195.965 250.491 205.32 249.771 213.255C249.095 220.678 246.806 226.871 243.572 231.82C236.493 242.683 224.234 247.602 210.87 247.266H207.637V242.859C207.948 223.49 211.311 210.869 216.091 202.436C223.612 189.142 234.656 186.097 243.282 183.813L245.539 183.139ZM241.724 189.538C243.293 198.19 243.315 205.481 242.423 211.659C241.66 216.93 240.102 221.308 237.803 224.895C232.561 233.094 223.88 237.296 214.093 238.247C214.287 223.621 216.629 213.592 220.228 206.579C225.9 195.511 234.494 191.983 241.724 189.538Z" fill="white" fill-opacity="0.12"/>
<path fill-rule="evenodd" clip-rule="evenodd" d="M327.925 163.741L329.107 164.34C340.376 169.45 348.638 180.797 353.73 195.101C356.942 204.09 358.812 214.28 359.532 224.587C361.53 252.96 354.439 282.286 341.043 294.335L338.432 296.737L336.595 293.267C325.83 272.316 317.752 244.469 316.752 217.867C316.054 199.01 318.869 180.797 326.711 166.097L327.925 163.741ZM328.559 171.5C337.304 177.063 343.17 187.341 346.983 199.332C349.572 207.487 351.206 216.461 351.893 225.612C353.58 248.437 349.573 272.316 339.872 284.35C330.246 265.376 322.983 240.999 321.597 217.442C320.631 200.986 322.522 184.94 328.559 171.5Z" fill="white" fill-opacity="0.12"/>
<path fill-rule="evenodd" clip-rule="evenodd" d="M284.247 300.456L285.676 300.017C295.399 296.342 304.359 295.961 312.47 298.831C318.411 300.939 323.879 304.833 328.81 310.221C338.769 321.099 346.526 338.419 352.058 361.024L353.767 367.7L348.599 366.983C332.216 364.348 312.115 361.493 298.88 346.618C290.801 337.541 285.118 324.101 284.398 303.516L284.247 300.456ZM288.33 306.342C296.473 304.629 303.789 305.536 310.429 308.45C315.338 310.602 319.84 313.925 323.987 318.435C332.044 327.204 338.758 340.307 343.947 357.422C329.594 355.768 313.308 353.294 301.942 341.377C294.905 334.027 289.845 323.017 288.33 306.342Z" fill="white" fill-opacity="0.12"/>
<path fill-rule="evenodd" clip-rule="evenodd" d="M383.822 262.888L384.328 264.909C387.809 276.548 388.421 287.894 386.766 298.172C385.542 305.785 383.006 312.769 379.708 318.845C371.188 334.525 357.201 344.1 343.847 343.822H340.592V339.385C340.871 319.225 345.394 303.501 351.636 291.716C360.693 274.615 373.305 265.802 381.555 263.562L383.822 262.888ZM380.03 269.418C381.717 278.876 381.244 287.69 379.568 295.713C378.279 301.906 376.217 307.586 373.509 312.637C367.096 324.599 357.244 332.959 347.124 334.642C347.5 318.596 351.002 305.712 355.869 295.713C362.905 281.277 372.693 272.756 380.03 269.418Z" fill="white" fill-opacity="0.12"/>
<path fill-rule="evenodd" clip-rule="evenodd" d="M456.464 216.288L458.839 217.503C470.237 222.745 479.498 236.565 485.288 253.973C488.704 264.221 490.832 275.744 491.691 287.149C494.216 320.822 485.224 353.515 463.383 358.141L462.008 358.449L460.902 357.278C450.792 346.312 446.119 333.223 444.679 318.787C441.725 289.169 452.908 253.666 456.11 220.417L456.464 216.288ZM459.408 225.423C467.916 231.573 474.169 243.812 478.423 258.014C481.27 267.486 483.237 277.881 484.064 288.247C486.277 315.888 480.948 343.706 463.673 349.153C452.608 336.957 449.406 321.379 449.6 304.22C449.879 279.594 456.872 251.85 459.408 225.423Z" fill="white" fill-opacity="0.12"/>
<path fill-rule="evenodd" clip-rule="evenodd" d="M552.218 327.234L552.583 328.625C556.085 340.425 555.828 351.406 553.153 361.127C551.928 365.578 550.166 369.765 547.953 373.572C537.629 391.301 518.226 401.286 503.111 401.037H500.984L500.114 398.388C495.204 382.825 498.932 367.379 507.161 354.817C517.979 338.288 536.457 326.868 550.209 327.234H552.218ZM548.135 332.431C550.015 342.49 548.78 351.318 545.858 359.019C543.709 364.641 540.615 369.633 536.909 373.967C528.056 384.318 515.863 390.951 505.292 391.931C502.37 380.6 505.496 369.297 511.329 359.692C520.364 344.847 535.791 333.837 548.135 332.431Z" fill="white" fill-opacity="0.12"/>
</svg>
